<?xml version="1.0"?>
<svg xmlns="http://www.w3.org/2000/svg" xmlns:xlink="http://www.w3.org/1999/xlink" xmlns:svgjs="http://svgjs.com/svgjs" version="1.1" width="512" height="512" x="0" y="0" viewBox="0 0 495.003 495.003" style="enable-background:new 0 0 512 512" xml:space="preserve" class=""><g><g xmlns="http://www.w3.org/2000/svg"><path d="m215.696 223.198c-8.148 8.148-13.195 19.398-13.195 31.805 0 24.812 20.185 45 45 45l10-45-10-45c-.27.057-17.523-1.086-31.805 13.195z" fill="#f5df71" data-original="#ffd400" style="" class=""/><path d="m292.501 255.003c0-24.812-20.186-45-45-45v90c24.813 0 45-20.186 45-45z" fill="#f1c95c" data-original="#ffbb00" style="" class=""/><path d="m203.703 34.646c-20.731 20.644-34.354 53.045-42.718 81.065-23.412 78.421-24.382 182.872-4.137 262.967 7.498 29.668 17.31 54.258 28.885 73.068 17.269 28.06 38.464 43.256 61.768 43.256l10-15-10-15c-22.778 0-41.382-35.626-49.802-56.773-25.072-62.97-29.86-150.388-21.203-219.353 4.722-37.617 15.469-84.486 35.433-116.341z" fill="#9cd9d6" data-original="#88e7e2" style="" class=""/><path d="m283.113 72.482c13.292 21.144 24.019 52.2 30.901 88.501 5.446 28.729 8.486 60.742 8.486 93.726 0 50.163-6.836 107.547-25.29 153.741-8.575 21.466-26.987 56.552-49.71 56.552v30c38.115 0 63.519-40.251 77.569-75.422 32.009-80.129 34.83-197.625 14.508-283.285-10.633-44.819-27.339-80.809-48.277-101.648z" fill="#7fcfce" data-original="#4ed5d3" style="" class=""/><path d="m215.696 13.198c-8.148 8.148-13.195 19.398-13.195 31.805 0 24.812 20.186 45 45 45l10-45-10-45c-.27.057-17.523-1.086-31.805 13.195z" fill="#e59bbf" data-original="#ea1c81" style="" class=""/><path d="m292.501 45.002c0-24.813-20.186-45-45-45v90c24.813 0 45-20.185 45-45z" fill="#c17db8" data-original="#bc00a2" style="" class=""/><path d="m78.123 304.171c11.665-22.083 33.198-46.9 61.194-71.012 32.79-28.239 70.618-52.37 108.185-70.952l-16.084-13.914-18.764-1.748c-37.968 20.807-76.007 47.094-107.5 76.819-33.499 31.62-56.314 64.083-63.891 92.637l43.803 75.86c30.501 8.25 68.937 2.559 99.628-5.499 20.026-5.257 41.175-12.627 62.808-21.95l-16.5-16.598-20.601-1.087c-29.041 10.513-65.83 20.278-96.664 19.126z" fill="#f5df71" data-original="#ffd400" style="" class=""/><path d="m247.501 331.476c58.778-27.005 124.908-71.458 164.24-121.398 14.302-18.159 35.48-51.648 24.12-71.326-11.361-19.68-50.963-18.08-73.83-14.774-26.708 3.86-54.328 12.371-79.667 22.578l-20.113-2.136-14.75-15.451c34.339-15.842 73.104-29.314 110.239-34.682 37.418-5.408 85.029-3.567 104.102 29.466 30.05 52.044-38.366 125.376-86.198 163.827-28.012 22.517-59.447 42.641-91.045 59.15l-20.265-2.561z" fill="#f1c95c" data-original="#ffbb00" style="" class=""/><path d="m33.16 371.253c-12.406-21.487-5.018-49.064 16.471-61.471 21.486-12.406 49.063-5.019 61.471 16.471 14.615 25.314 1.525 58.221-27.285 65.961-15.74 4.229-39.079-.908-50.657-20.961z" fill="#c17db8" data-original="#bc00a2" style="" class=""/><path d="m83.261 210.078c-14.302-18.158-35.482-51.648-24.121-71.326 11.291-19.556 50.81-18.102 73.831-14.774 38.479 5.562 79.231 20.77 114.53 38.231l10-16.62-10-16.62c-34.339-15.843-73.105-29.314-110.239-34.682-37.417-5.407-85.03-3.568-104.102 29.466-30.021 51.998 38.24 125.274 86.199 163.827 37.47 30.121 82.838 57.309 128.143 76.834l10-16.468-10-16.468c-58.767-27.003-124.898-71.447-164.241-121.4z" fill="#abd0f7" data-original="#99cbff" style="" class=""/><path d="m453.738 316c-7.577-28.553-30.392-61.017-63.892-92.637-40.47-38.199-92.588-71.438-142.346-94.396v33.24c37.572 18.584 75.398 42.715 108.185 70.951 27.996 24.111 49.529 48.928 61.193 71.012l-35.612 61.683c-19.244.723-42.83-2.824-68.609-10.075-20.677-5.815-42.765-14.013-65.156-24.302v32.936c38.624 16.646 86.352 31.483 128.54 31.483 11.324 0 23.014-1.091 33.9-4.036z" fill="#81b0f1" data-original="#6fa9f8" style="" class=""/><path d="m411.23 305.306c-11.131 2.982-21.127 10.202-27.33 20.946-12.406 21.488-5.018 49.064 16.471 61.471 34.513 19.929 76.339-11.821 65.945-50.612-6.437-24.026-31.042-38.248-55.086-31.805z" fill="#c17db8" data-original="#bc00a2" style="" class=""/></g></g></svg>
