<?xml version="1.0" encoding="UTF-8"?>
<svg width="300px" height="300px" viewBox="0 0 300 300" version="1.1" xmlns="http://www.w3.org/2000/svg" xmlns:xlink="http://www.w3.org/1999/xlink">
    <!-- Generator: Sketch 51.3 (57544) - http://www.bohemiancoding.com/sketch -->
    <title>logo</title>
    <desc>Created with Sketch.</desc>
    <defs>
        <polygon id="path-1" points="54.8370839 0 265.735938 0 265.735938 192.800207 54.8370839 192.800207"></polygon>
    </defs>
    <g id="logo" stroke="none" stroke-width="1" fill="none" fill-rule="evenodd">
        <g transform="translate(19.000000, 54.000000)" id="0:Fundamentals/Brand/Logo/1">
            <g>
                <g id="Page-1">
                    <path d="M62.3933935,51.0238855 C41.5634261,52.572281 21.0148276,55.0493141 0.783458667,58.4022395 C0.178949037,58.5001381 -0.167442074,59.1538607 0.0816127407,59.7208731 C9.29309422,80.5141257 19.5654231,101.048846 30.9573164,121.244718 C42.3464513,141.444186 54.5895446,160.839687 67.5928068,179.434817 C67.945109,179.939894 68.6765105,179.969463 69.0682201,179.493956 C75.1637579,172.082037 81.1296453,164.510283 86.9698231,156.793879 C81.3467801,137.379198 76.2640127,117.668024 71.7569876,97.6791381 C68.2528809,82.122459 65.1365431,66.5673783 62.3933935,51.0238855" id="Fill-1" fill="#E6268C"></path>
                    <mask id="mask-2" fill="white">
                        <use xlink:href="#path-1"></use>
                    </mask>
                    <g id="Clip-4"></g>
                    <path d="M265.124289,52.2573673 C228.275604,38.5931271 190.242727,26.9863549 151.080828,17.6819967 C119.324763,10.1398124 87.5651508,4.28388075 55.8934175,0.00831138716 C55.2877256,-0.0728045549 54.7671538,0.448655072 54.8447864,1.06561573 C56.9381079,17.6947834 59.4519064,34.351123 62.3932753,51.0238455 C64.4022649,50.8732017 66.4116486,50.7193611 68.4241849,50.5870981 C96.6666856,48.7342182 124.614419,48.6547006 152.180689,50.2038952 C152.853767,50.239858 153.267545,50.9750961 152.957409,51.5816675 C140.267829,76.397152 126.005895,100.723943 110.097124,124.403804 C102.645183,135.493113 94.9260604,146.283131 86.9697049,156.794239 C90.4154886,168.693908 94.0654027,180.480893 97.9119597,192.153997 C98.1030856,192.741388 98.7954738,192.984336 99.3065879,192.646287 C126.028357,174.881096 152.15468,155.659415 177.559847,134.914912 C208.839871,109.371781 238.123909,82.2534832 265.47068,53.8029656 C265.94278,53.3170692 265.758748,52.4935226 265.124289,52.2573673" id="Fill-3" fill="#FFBB00" mask="url(#mask-2)"></path>
                    <path d="M152.957093,51.5805087 C153.268412,50.9747364 152.855028,50.2402975 152.180767,50.203136 C124.614892,48.6555398 96.6655822,48.7330594 68.42584,50.5871381 C66.4113333,50.7198006 64.4035259,50.8712437 62.3941422,51.0226867 C65.1365037,66.5665791 68.2528415,82.1212602 71.7581304,97.6795377 C76.2631852,117.670022 81.3451644,137.379598 86.9689956,156.79348 C94.924563,146.282772 102.646444,135.491954 110.095627,124.401846 C126.005579,100.722784 140.266726,76.3971919 152.957093,51.5805087" id="Fill-6" fill="#4E0250" mask="url(#mask-2)"></path>
                </g>
            </g>
        </g>
    </g>
</svg>